<svg width="150" height="36" viewBox="0 0 150 36" fill="none" xmlns="http://www.w3.org/2000/svg">
<path d="M14.2383 2.33752C12.736 4.49369 14.2281 10.1943 14.5548 12.7792L15.8204 12.4627C15.4684 9.67745 15.798 4.62048 14.2383 2.33752Z" fill="#FF7000"/>
<path d="M18.3521 2.65405L16.1372 12.4629L17.4029 12.7793L19.3013 2.97047L18.3521 2.65405Z" fill="#FF7000"/>
<path d="M9.17568 3.91944L12.6562 13.0954L6.64437 5.81792L5.37872 6.13433L11.3906 14.3611L2.84742 8.98205L2.53101 10.2477L11.0742 15.6267L12.6562 13.0954L14.2383 12.779L10.4413 3.60303L9.17568 3.91944Z" fill="#FF7000"/>
<path d="M22.4654 3.91956L17.7192 13.0955C19.9267 13.4296 23.9614 5.62752 22.4654 3.91956Z" fill="#FF7000"/>
<path d="M19.3015 14.361C22.1479 13.7609 25.5816 9.39784 27.2118 7.0835C24.5568 6.86106 19.9835 11.9311 19.3015 14.361Z" fill="#FF7000"/>
<path d="M0.94947 13.0955L0.633057 14.0447C3.30909 15.4492 7.41957 16.7543 10.4419 16.8924C9.62273 14.5368 3.24182 13.5699 0.94947 13.0955Z" fill="#FF7000"/>
<path d="M0 17.5255V18.7912H10.1252V17.5255H0Z" fill="#FF7000"/>
<path d="M21.1995 18.791L31.3247 18.4746V17.8417C29.3158 17.2479 21.9551 16.5144 21.1995 18.791Z" fill="#FF7000"/>
<path d="M20.8835 19.4241C21.7048 21.7842 28.0863 22.7472 30.3759 23.221L30.6923 22.9046V22.2718C27.999 20.8582 23.9251 19.5567 20.8835 19.4241Z" fill="#FF7000"/>
<path d="M20.5667 20.6896L19.9338 21.9552L28.477 27.3342L28.7934 26.0686L20.5667 20.6896Z" fill="#FF7000"/>
<path d="M4.42969 29.2326L4.7461 29.549L12.34 22.9043C10.3012 21.0308 5.27948 27.4104 4.42969 29.2326Z" fill="#FF7000"/>
<path d="M20.8835 32.7132H22.1491L18.6686 22.9044H18.985C20.2827 25.4192 23.0506 29.2703 25.6297 30.4983L25.9461 30.1819C24.9227 27.8857 22.4581 24.5955 20.4755 23.0186C19.6302 22.3463 18.0294 22.4981 17.6271 23.6607C16.9126 25.7254 20.2991 30.5777 20.8835 32.7132Z" fill="#FF7000"/>
<path d="M12.3398 22.9044C11.4555 25.0283 7.12779 30.5287 8.85923 32.3968L13.6054 23.2208L12.3398 22.9044Z" fill="#FF7000"/>
<path d="M13.9222 23.5371L12.3401 33.6623C15.2466 32.8121 13.6355 26.0902 15.8206 24.1699C15.8206 26.195 15.5276 33.0213 17.7191 33.6623C17.7177 31.6256 18.1307 25.6525 16.7611 24.1155C16.206 23.4925 14.6923 23.6208 13.9222 23.5371Z" fill="#FF7000"/>
<path d="M44.3604 27.3479C42.2397 27.3479 40.5582 26.7515 39.3156 25.5586C38.073 24.3492 37.4518 22.6096 37.4518 20.3399V16.2643C37.4518 13.9946 38.073 12.2633 39.3156 11.0705C40.5582 9.86104 42.2397 9.25633 44.3604 9.25633C46.4479 9.25633 48.0549 9.83619 49.1815 10.9959C50.3246 12.1556 50.8962 13.7378 50.8962 15.7425V15.8916H48.2371V15.6679C48.2371 14.4916 47.9141 13.5307 47.2679 12.7852C46.6384 12.0397 45.6692 11.6669 44.3604 11.6669C43.035 11.6669 41.9995 12.0728 41.254 12.8846C40.5085 13.6798 40.1357 14.7898 40.1357 16.2146V20.3896C40.1357 21.7978 40.5085 22.9079 41.254 23.7197C41.9995 24.5315 43.035 24.9374 44.3604 24.9374C45.6692 24.9374 46.6384 24.5646 47.2679 23.8191C47.9141 23.057 48.2371 22.0961 48.2371 20.9363V20.5139H50.8962V20.8618C50.8962 22.8664 50.3246 24.4486 49.1815 25.6083C48.0549 26.7681 46.4479 27.3479 44.3604 27.3479ZM59.683 27.3479C58.457 27.3479 57.3636 27.0994 56.4027 26.6024C55.4583 26.0888 54.7128 25.3598 54.1661 24.4155C53.6193 23.4711 53.346 22.3528 53.346 21.0606V20.6878C53.346 19.3956 53.6193 18.2856 54.1661 17.3578C54.7128 16.4134 55.4583 15.6845 56.4027 15.1709C57.3636 14.6573 58.457 14.4005 59.683 14.4005C60.909 14.4005 62.0024 14.6573 62.9633 15.1709C63.9242 15.6845 64.6781 16.4134 65.2248 17.3578C65.7715 18.2856 66.0449 19.3956 66.0449 20.6878V21.0606C66.0449 22.3528 65.7715 23.4711 65.2248 24.4155C64.6781 25.3598 63.9242 26.0888 62.9633 26.6024C62.0024 27.0994 60.909 27.3479 59.683 27.3479ZM59.683 25.0616C60.8096 25.0616 61.7208 24.7054 62.4166 23.993C63.129 23.2641 63.4852 22.2617 63.4852 20.986V20.7624C63.4852 19.4867 63.1373 18.4926 62.4415 17.7803C61.7456 17.0513 60.8261 16.6868 59.683 16.6868C58.573 16.6868 57.6618 17.0513 56.9494 17.7803C56.2535 18.4926 55.9056 19.4867 55.9056 20.7624V20.986C55.9056 22.2617 56.2535 23.2641 56.9494 23.993C57.6618 24.7054 58.573 25.0616 59.683 25.0616ZM74.3013 27.3479C73.2906 27.3479 72.3546 27.0994 71.4931 26.6024C70.6316 26.1054 69.9357 25.393 69.4056 24.4652C68.892 23.5208 68.6352 22.386 68.6352 21.0606V20.6878C68.6352 19.379 68.892 18.2524 69.4056 17.3081C69.9192 16.3637 70.6067 15.6431 71.4682 15.146C72.3297 14.649 73.2741 14.4005 74.3013 14.4005C75.0965 14.4005 75.7592 14.4999 76.2893 14.6987C76.8361 14.8975 77.2834 15.1543 77.6313 15.4691C77.9792 15.7673 78.2443 16.0821 78.4265 16.4134H78.8241V9.60425H81.3838V27H78.8739V25.2604H78.4762C78.1615 25.7906 77.681 26.271 77.0349 26.7018C76.4053 27.1325 75.4941 27.3479 74.3013 27.3479ZM75.0219 25.1113C76.1319 25.1113 77.0432 24.7551 77.7556 24.0427C78.4845 23.3303 78.849 22.3114 78.849 20.986V20.7624C78.849 19.4536 78.4928 18.4429 77.7804 17.7305C77.068 17.0182 76.1485 16.662 75.0219 16.662C73.9285 16.662 73.0173 17.0182 72.2883 17.7305C71.5759 18.4429 71.2197 19.4536 71.2197 20.7624V20.986C71.2197 22.3114 71.5759 23.3303 72.2883 24.0427C73.0173 24.7551 73.9285 25.1113 75.0219 25.1113ZM90.7682 27.3479C89.5256 27.3479 88.4405 27.0911 87.5127 26.5775C86.5849 26.0474 85.856 25.3101 85.3258 24.3658C84.8122 23.4049 84.5554 22.2949 84.5554 21.0357V20.7375C84.5554 19.4618 84.8122 18.3518 85.3258 17.4075C85.8394 16.4466 86.5518 15.7093 87.463 15.1957C88.3908 14.6656 89.4594 14.4005 90.6688 14.4005C91.8451 14.4005 92.8723 14.6656 93.7503 15.1957C94.645 15.7093 95.3408 16.43 95.8378 17.3578C96.3348 18.2856 96.5833 19.3707 96.5833 20.6133V21.5825H87.1648C87.1979 22.6593 87.5541 23.5208 88.2334 24.167C88.9292 24.7965 89.7907 25.1113 90.8179 25.1113C91.7788 25.1113 92.4995 24.8959 92.9799 24.4652C93.477 24.0344 93.858 23.5374 94.1231 22.9741L96.2354 24.0676C96.0035 24.5315 95.6639 25.0202 95.2165 25.5338C94.7858 26.0474 94.2142 26.4781 93.5018 26.826C92.7894 27.174 91.8782 27.3479 90.7682 27.3479ZM87.1896 19.6192H93.974C93.9077 18.6915 93.5764 17.9708 92.9799 17.4572C92.3835 16.927 91.6048 16.662 90.6439 16.662C89.683 16.662 88.8961 16.927 88.2831 17.4572C87.6867 17.9708 87.3222 18.6915 87.1896 19.6192Z" fill="black"/>
<path d="M99.416 27V9.60425H102.696V16.7862H109.158V9.60425H112.438V27H109.158V19.7683H102.696V27H99.416ZM115.824 27V14.6739H118.955V27H115.824ZM117.39 13.2325C116.826 13.2325 116.346 13.0503 115.948 12.6858C115.567 12.3213 115.377 11.8408 115.377 11.2444C115.377 10.648 115.567 10.1675 115.948 9.80306C116.346 9.43857 116.826 9.25633 117.39 9.25633C117.969 9.25633 118.45 9.43857 118.831 9.80306C119.212 10.1675 119.402 10.648 119.402 11.2444C119.402 11.8408 119.212 12.3213 118.831 12.6858C118.45 13.0503 117.969 13.2325 117.39 13.2325ZM125.009 27L121.083 14.6739H124.413L127.271 24.7137H127.718L130.576 14.6739H133.906L129.98 27H125.009ZM141.292 27.3479C140.066 27.3479 138.981 27.0911 138.036 26.5775C137.109 26.0474 136.38 25.3101 135.85 24.3658C135.336 23.4049 135.079 22.2783 135.079 20.986V20.6878C135.079 19.3956 135.336 18.2773 135.85 17.3329C136.363 16.372 137.084 15.6348 138.012 15.1212C138.939 14.591 140.016 14.326 141.242 14.326C142.452 14.326 143.504 14.5993 144.398 15.146C145.293 15.6762 145.989 16.4217 146.486 17.3826C146.983 18.327 147.231 19.4287 147.231 20.6878V21.7564H138.26C138.293 22.6014 138.608 23.2889 139.204 23.8191C139.801 24.3492 140.53 24.6143 141.391 24.6143C142.269 24.6143 142.916 24.4238 143.33 24.0427C143.744 23.6617 144.059 23.2392 144.274 22.7753L146.834 24.1173C146.602 24.548 146.262 25.0202 145.815 25.5338C145.384 26.0308 144.804 26.4616 144.075 26.826C143.346 27.174 142.419 27.3479 141.292 27.3479ZM138.285 19.4204H144.05C143.984 18.708 143.694 18.1364 143.181 17.7057C142.684 17.2749 142.029 17.0596 141.217 17.0596C140.372 17.0596 139.702 17.2749 139.204 17.7057C138.707 18.1364 138.401 18.708 138.285 19.4204Z" fill="#FF7000"/>
</svg>
