<svg width="18" height="18" viewBox="0 0 18 18" fill="none" xmlns="http://www.w3.org/2000/svg">
<path d="M8.99984 5.45841C8.48207 5.45841 8.06234 5.87815 8.06234 6.39592C8.06234 6.74109 7.78252 7.02092 7.43734 7.02092C7.09216 7.02092 6.81234 6.74109 6.81234 6.39592C6.81234 5.18779 7.79172 4.20841 8.99984 4.20841C10.208 4.20841 11.1873 5.18779 11.1873 6.39592C11.1873 7.1987 10.7545 7.89973 10.1126 8.27955C9.9486 8.37656 9.81325 8.48248 9.72507 8.58639C9.63946 8.68727 9.62484 8.75308 9.62484 8.79175V9.83342C9.62484 10.1786 9.34502 10.4584 8.99984 10.4584C8.65466 10.4584 8.37484 10.1786 8.37484 9.83342V8.79175C8.37484 8.37018 8.5594 8.02811 8.772 7.77759C8.98202 7.5301 9.24391 7.34109 9.47606 7.20374C9.75353 7.03958 9.93734 6.73888 9.93734 6.39592C9.93734 5.87815 9.5176 5.45841 8.99984 5.45841Z" fill="url(#paint0_linear_127206_5271)"/>
<path d="M8.99984 13.1667C9.46007 13.1667 9.83317 12.7937 9.83317 12.3334C9.83317 11.8732 9.46007 11.5001 8.99984 11.5001C8.5396 11.5001 8.1665 11.8732 8.1665 12.3334C8.1665 12.7937 8.5396 13.1667 8.99984 13.1667Z" fill="url(#paint1_linear_127206_5271)"/>
<path fill-rule="evenodd" clip-rule="evenodd" d="M8.95202 0.0417482H9.04765C10.9713 0.0417378 12.4788 0.0417297 13.6551 0.199871C14.859 0.361737 15.8091 0.699521 16.5547 1.4452C17.3004 2.19087 17.6382 3.14089 17.8 4.34484C17.9582 5.52108 17.9582 7.02861 17.9582 8.95227V9.04789C17.9582 10.9716 17.9582 12.4791 17.8 13.6553C17.6382 14.8593 17.3004 15.8093 16.5547 16.555C15.8091 17.3006 14.859 17.6384 13.6551 17.8003C12.4788 17.9584 10.9713 17.9584 9.04765 17.9584H8.95203C7.02836 17.9584 5.52083 17.9584 4.34459 17.8003C3.14065 17.6384 2.19063 17.3006 1.44495 16.555C0.699277 15.8093 0.361493 14.8593 0.199626 13.6553C0.0414856 12.4791 0.0414937 10.9716 0.0415041 9.04791V8.95227C0.0414937 7.02861 0.0414856 5.52107 0.199626 4.34484C0.361493 3.14089 0.699277 2.19087 1.44495 1.4452C2.19063 0.699521 3.14065 0.361737 4.34459 0.199871C5.52083 0.0417297 7.02837 0.0417378 8.95202 0.0417482ZM4.51115 1.43872C3.44582 1.58195 2.80355 1.85437 2.32883 2.32908C1.85412 2.80379 1.58171 3.44606 1.43848 4.5114C1.29283 5.59471 1.2915 7.01823 1.2915 9.00008C1.2915 10.9819 1.29283 12.4055 1.43848 13.4888C1.58171 14.5541 1.85412 15.1964 2.32883 15.6711C2.80355 16.1458 3.44582 16.4182 4.51115 16.5614C5.59447 16.7071 7.01798 16.7084 8.99984 16.7084C10.9817 16.7084 12.4052 16.7071 13.4885 16.5614C14.5539 16.4182 15.1961 16.1458 15.6708 15.6711C16.1456 15.1964 16.418 14.5541 16.5612 13.4888C16.7068 12.4055 16.7082 10.9819 16.7082 9.00008C16.7082 7.01823 16.7068 5.59471 16.5612 4.5114C16.418 3.44606 16.1456 2.80379 15.6708 2.32908C15.1961 1.85437 14.5539 1.58195 13.4885 1.43872C12.4052 1.29308 10.9817 1.29175 8.99984 1.29175C7.01798 1.29175 5.59447 1.29308 4.51115 1.43872Z" fill="url(#paint2_linear_127206_5271)"/>
<defs>
<linearGradient id="paint0_linear_127206_5271" x1="-2.59939" y1="0.0417521" x2="18.8107" y2="1.24629" gradientUnits="userSpaceOnUse">
<stop stop-color="#FF7000"/>
<stop offset="0.9999" stop-color="#E2985E"/>
<stop offset="1" stop-color="#E2995F"/>
</linearGradient>
<linearGradient id="paint1_linear_127206_5271" x1="-2.59939" y1="0.0417521" x2="18.8107" y2="1.24629" gradientUnits="userSpaceOnUse">
<stop stop-color="#FF7000"/>
<stop offset="0.9999" stop-color="#E2985E"/>
<stop offset="1" stop-color="#E2995F"/>
</linearGradient>
<linearGradient id="paint2_linear_127206_5271" x1="-2.59939" y1="0.0417521" x2="18.8107" y2="1.24629" gradientUnits="userSpaceOnUse">
<stop stop-color="#FF7000"/>
<stop offset="0.9999" stop-color="#E2985E"/>
<stop offset="1" stop-color="#E2995F"/>
</linearGradient>
</defs>
</svg>
